<?xml version="1.0" encoding="UTF-8"?>
<!DOCTYPE svg PUBLIC "-//W3C//DTD SVG 1.1//EN" "http://www.w3.org/Graphics/SVG/1.1/DTD/svg11.dtd">
<!-- Creator: CorelDRAW X7 -->
<svg xmlns="http://www.w3.org/2000/svg" xml:space="preserve" width="1.95334in" height="1.95359in" version="1.1" style="shape-rendering:geometricPrecision; text-rendering:geometricPrecision; image-rendering:optimizeQuality; fill-rule:evenodd; clip-rule:evenodd"
viewBox="0 0 1953 1954"
 xmlns:xlink="http://www.w3.org/1999/xlink">
 <defs>
  <style type="text/css">
   <![CDATA[
    .fil0 {fill:url(#id0);fill-rule:nonzero}
   ]]>
  </style>
  <linearGradient id="id0" gradientUnits="userSpaceOnUse" x1="252.011" y1="1697.69" x2="1701.32" y2="255.904">
   <stop offset="0" style="stop-opacity:1; stop-color:#4E4EF2"/>
   <stop offset="1" style="stop-opacity:1; stop-color:#00CCFF"/>
  </linearGradient>
 </defs>
 <g id="Layer_x0020_2">
  <metadata id="CorelCorpID_0Corel-Layer"/>
  <path class="fil0" d="M1363 1273l463 462 0 -1607 -481 0 0 699 -699 -699 -427 0 1144 1145zm372 552l-462 -462 -1145 -1144 0 501 1106 1105 501 0zm-528 129l-26 0 -19 -19 -425 -426 0 380 0 65 -64 0 -609 0 -64 0 0 -65 0 -608 0 -508 0 -27 0 -682 0 -64 673 0 26 0 19 19 499 499 0 -454 0 -64 64 0 608 0 64 0 0 64 0 1890 -746 0zm-599 -573l-480 -480 0 380 0 544 480 0 0 -444z"/>
 </g>
</svg>
